<?xml version="1.0" standalone="no"?>
<!DOCTYPE svg PUBLIC "-//W3C//DTD SVG 20010904//EN"
 "http://www.w3.org/TR/2001/REC-SVG-20010904/DTD/svg10.dtd">
<svg version="1.0" xmlns="http://www.w3.org/2000/svg"
 width="128.000000pt" height="128.000000pt" viewBox="0 0 128.000000 128.000000"
 preserveAspectRatio="xMidYMid meet">

<g transform="translate(0.000000,128.000000) scale(0.100000,-0.100000)"
fill="#000000" stroke="none">
<path d="M501 1265 c-298 -65 -518 -355 -497 -655 7 -108 26 -174 50 -178 17
-4 18 1 12 34 -21 124 -26 184 -21 229 31 251 198 449 440 521 80 24 229 24
310 0 110 -33 172 -70 264 -159 l53 -52 -73 -5 c-57 -4 -74 -8 -74 -20 0 -12
18 -15 100 -15 l100 0 3 103 c2 95 1 103 -15 100 -14 -3 -19 -15 -21 -62 l-3
-58 -47 48 c-146 148 -372 214 -581 169z"/>
<path d="M677 1038 c-13 -18 -91 -145 -172 -281 -100 -167 -145 -251 -138
-258 7 -7 47 -4 124 10 63 10 115 18 117 16 2 -2 -9 -66 -24 -142 -15 -77 -24
-148 -20 -158 7 -18 7 -18 26 1 10 10 89 127 174 259 125 191 154 241 144 251
-10 10 -36 8 -122 -7 -61 -10 -112 -17 -114 -14 -2 2 8 69 22 149 28 157 31
192 17 201 -5 3 -21 -9 -34 -27z m-38 -242 c-13 -69 -18 -121 -13 -126 6 -6
49 -3 107 7 53 9 100 13 103 10 3 -3 -43 -80 -102 -171 -59 -91 -109 -165
-110 -163 -1 1 7 49 19 105 15 79 17 106 8 111 -6 4 -58 0 -114 -10 -56 -9
-103 -16 -105 -14 -1 1 48 86 109 189 62 102 113 185 115 183 2 -2 -6 -56 -17
-121z"/>
<path d="M1214 846 c-3 -9 0 -39 7 -68 18 -78 16 -222 -5 -293 -61 -206 -215
-360 -421 -421 -80 -24 -229 -24 -310 0 -110 33 -172 70 -264 159 l-53 52 73
5 c57 4 74 8 74 20 0 12 -18 15 -100 15 l-100 0 -3 -103 c-2 -95 -1 -103 15
-100 14 3 19 15 21 62 l3 58 47 -48 c242 -245 644 -243 892 6 160 159 224 387
170 603 -14 53 -36 79 -46 53z"/>
</g>
</svg>
