<?xml version="1.0" standalone="no"?>
<!DOCTYPE svg PUBLIC "-//W3C//DTD SVG 20010904//EN"
 "http://www.w3.org/TR/2001/REC-SVG-20010904/DTD/svg10.dtd">
<svg version="1.0" xmlns="http://www.w3.org/2000/svg"
 width="128.000000pt" height="128.000000pt" viewBox="0 0 128.000000 128.000000"
 preserveAspectRatio="xMidYMid meet">

<g transform="translate(0.000000,128.000000) scale(0.100000,-0.100000)"
fill="#000000" stroke="none">
<path d="M4 1165 c-12 -31 7 -35 154 -35 l147 0 -62 -40 c-82 -54 -146 -127
-188 -214 -138 -291 -2 -619 305 -735 64 -24 72 -24 485 -31 231 -4 423 -4
428 0 4 3 6 94 5 201 l-3 194 -114 -3 c-105 -2 -113 -1 -106 15 14 37 17 152
6 219 -37 213 -216 395 -425 433 -34 6 -184 11 -343 11 -239 0 -285 -2 -289
-15z m641 -51 c93 -24 163 -63 229 -130 117 -117 168 -280 135 -433 -10 -49
-11 -50 -52 -53 -34 -2 -42 -7 -42 -23 0 -19 8 -20 108 -23 l107 -3 0 -144 0
-145 -323 0 c-351 0 -389 4 -497 58 -30 15 -82 54 -115 87 -192 193 -191 487
1 679 122 123 291 172 449 130z m585 -809 l0 -155 -25 0 -25 0 0 155 0 155 25
0 25 0 0 -155z"/>
<path d="M446 904 c-34 -11 -64 -31 -102 -68 -108 -109 -112 -265 -7 -377 103
-110 264 -117 378 -17 61 54 89 117 89 203 0 87 -28 149 -90 204 -74 65 -170
85 -268 55z m64 -108 c0 -64 -3 -75 -19 -81 -18 -5 -131 51 -131 67 0 20 104
83 143 87 4 1 7 -32 7 -73z m126 47 c32 -14 81 -60 73 -67 -2 -2 -28 -18 -58
-35 -78 -46 -91 -39 -91 55 0 84 -1 83 76 47z m-238 -147 c71 -40 70 -61 -5
-104 -37 -22 -60 -29 -66 -23 -25 25 -15 170 11 159 4 -2 31 -16 60 -32z m353
7 c12 -32 7 -119 -8 -134 -6 -6 -29 1 -66 23 -75 42 -75 63 -4 105 28 17 55
32 60 32 4 1 12 -11 18 -26z m-187 -45 c8 -14 7 -21 -6 -34 -30 -30 -75 9 -48
42 16 18 39 15 54 -8z m-70 -84 c13 -5 16 -22 16 -81 0 -83 1 -82 -76 -46 -37
17 -84 64 -69 70 6 2 30 17 55 33 50 32 52 33 74 24z m158 -26 c29 -17 55 -33
57 -35 8 -6 -42 -52 -73 -66 -77 -36 -76 -37 -76 46 0 71 4 83 32 86 4 1 31
-13 60 -31z"/>
<path d="M114 575 c-7 -18 3 -35 21 -35 15 0 24 19 18 38 -6 17 -32 15 -39 -3z"/>
<path d="M142 497 c-31 -36 98 -191 200 -241 66 -32 132 -44 143 -26 10 17
-13 35 -65 49 -50 15 -134 66 -167 102 -11 13 -34 46 -50 73 -31 54 -44 63
-61 43z"/>
<path d="M823 484 c-3 -8 -1 -20 5 -26 15 -15 43 8 35 28 -7 19 -32 18 -40 -2z"/>
</g>
</svg>
