<?xml version="1.0" standalone="no"?>
<!DOCTYPE svg PUBLIC "-//W3C//DTD SVG 20010904//EN"
 "http://www.w3.org/TR/2001/REC-SVG-20010904/DTD/svg10.dtd">
<svg version="1.0" xmlns="http://www.w3.org/2000/svg"
 width="128.000000pt" height="128.000000pt" viewBox="0 0 128.000000 128.000000"
 preserveAspectRatio="xMidYMid meet">

<g transform="translate(0.000000,128.000000) scale(0.100000,-0.100000)"
fill="#000000" stroke="none">
<path d="M515 1221 c-83 -38 -134 -116 -135 -202 0 -60 -26 -75 -85 -48 -45
21 -126 24 -174 8 -44 -16 -41 -44 18 -135 l49 -77 -29 -61 c-23 -48 -35 -62
-56 -67 -72 -15 -103 -59 -103 -148 0 -93 33 -137 112 -147 39 -5 53 -12 70
-38 12 -17 36 -47 54 -66 31 -33 33 -40 36 -115 l3 -80 94 -3 c105 -3 121 4
121 52 l0 31 109 0 108 0 9 -40 9 -40 94 -3 c60 -2 98 1 107 9 10 8 14 35 14
90 l0 79 44 41 c53 48 100 119 122 181 12 37 21 47 43 51 68 14 131 103 131
187 0 82 -70 188 -108 164 -26 -17 -25 -38 2 -79 42 -61 29 -170 -20 -189 -22
-9 -30 5 -37 65 -13 105 -124 249 -241 309 -47 24 -48 26 -51 77 -10 156 -172
258 -310 194z m146 -67 c8 -2 30 -20 49 -39 43 -45 53 -121 21 -173 -65 -103
-214 -94 -263 15 -36 81 3 169 87 198 36 12 56 12 106 -1z m-383 -259 c50 -23
55 -24 90 -10 35 15 37 15 61 -9 24 -24 24 -26 7 -45 -10 -11 -16 -28 -14 -38
4 -20 15 -20 153 -7 48 4 88 1 126 -9 61 -16 89 -9 89 23 0 10 -9 25 -19 32
-18 13 -18 14 5 43 l24 30 47 -25 c64 -34 135 -106 169 -171 26 -48 29 -65 29
-144 0 -79 -3 -96 -29 -144 -15 -30 -54 -79 -87 -110 l-58 -56 -3 -70 -3 -70
-37 -3 -38 -3 0 44 c0 59 -17 74 -68 59 -79 -23 -131 -25 -207 -7 -88 21 -95
18 -102 -49 -5 -45 -7 -46 -39 -46 l-34 0 0 68 c0 65 -1 68 -39 104 -22 20
-51 57 -66 82 -28 47 -40 54 -110 58 l-40 3 -3 59 c-2 32 2 64 7 69 6 6 30 13
53 16 34 5 45 11 53 31 6 14 25 54 43 89 17 35 32 69 32 75 0 6 -18 40 -40 76
-22 36 -40 68 -40 73 0 14 35 7 88 -18z"/>
<path d="M570 1064 c-28 -72 11 -151 55 -114 18 15 20 111 3 128 -20 20 -48
14 -58 -14z"/>
<path d="M271 622 c-13 -25 5 -52 34 -52 15 0 26 7 30 20 13 41 -44 70 -64 32z"/>
</g>
</svg>
